<svg width="25" height="24" viewBox="0 0 25 24" fill="none" xmlns="http://www.w3.org/2000/svg">
<path d="M16.903 7.37135C17.0044 7.47267 17.0849 7.59298 17.1398 7.72542C17.1947 7.85785 17.2229 7.99981 17.2229 8.14317C17.2229 8.28653 17.1947 8.42849 17.1398 8.56092C17.0849 8.69336 17.0044 8.81367 16.903 8.91499L13.6499 12.167L16.5692 15.0852C16.7739 15.2899 16.8889 15.5675 16.8889 15.857C16.8889 16.1465 16.7739 16.4241 16.5692 16.6288C16.3645 16.8335 16.0868 16.9485 15.7974 16.9485C15.5079 16.9485 15.2302 16.8335 15.0255 16.6288L12.1074 13.7095L9.18918 16.6288C8.98448 16.8335 8.70685 16.9485 8.41736 16.9485C8.12787 16.9485 7.85024 16.8335 7.64554 16.6288C7.44084 16.4241 7.32585 16.1465 7.32585 15.857C7.32585 15.5675 7.44084 15.2899 7.64554 15.0852L10.5648 12.167L7.31173 8.91499C7.21037 8.81356 7.12998 8.69316 7.07516 8.56067C7.02033 8.42817 6.99214 8.28618 6.99219 8.14279C6.99224 7.9994 7.02053 7.85742 7.07545 7.72496C7.13037 7.59251 7.21084 7.47216 7.31227 7.37081C7.4137 7.26945 7.5341 7.18906 7.66659 7.13424C7.79909 7.07941 7.94108 7.05122 8.08447 7.05127C8.22786 7.05132 8.36984 7.07961 8.5023 7.13453C8.63475 7.18945 8.7551 7.26992 8.85645 7.37135L12.1074 10.6255L15.3594 7.37244C15.4607 7.27102 15.581 7.19055 15.7134 7.13565C15.8459 7.08075 15.9878 7.0525 16.1312 7.0525C16.2745 7.0525 16.4165 7.08075 16.5489 7.13565C16.6814 7.19055 16.8017 7.26992 16.903 7.37135Z" fill="currentColor"/>
<path fill-rule="evenodd" clip-rule="evenodd" d="M3.38015 0C2.51217 0 1.67974 0.344804 1.06598 0.95856C0.452226 1.57232 0.107422 2.40475 0.107422 3.27273V20.7273C0.107422 21.5953 0.452226 22.4277 1.06598 23.0414C1.67974 23.6552 2.51217 24 3.38015 24H20.8347C21.7027 24 22.5351 23.6552 23.1489 23.0414C23.7626 22.4277 24.1074 21.5953 24.1074 20.7273V3.27273C24.1074 2.40475 23.7626 1.57232 23.1489 0.95856C22.5351 0.344804 21.7027 0 20.8347 0H3.38015ZM20.8347 2.18182H3.38015C3.09082 2.18182 2.81335 2.29675 2.60876 2.50134C2.40417 2.70592 2.28924 2.9834 2.28924 3.27273V20.7273C2.28924 21.0166 2.40417 21.2941 2.60876 21.4987C2.81335 21.7032 3.09082 21.8182 3.38015 21.8182H20.8347C21.124 21.8182 21.4015 21.7032 21.6061 21.4987C21.8107 21.2941 21.9256 21.0166 21.9256 20.7273V3.27273C21.9256 2.9834 21.8107 2.70592 21.6061 2.50134C21.4015 2.29675 21.124 2.18182 20.8347 2.18182Z" fill="currentColor"/>
</svg>
