<svg width="16" height="16" viewBox="0 0 16 16" fill="none" xmlns="http://www.w3.org/2000/svg">
<path d="M15.6464 8.35355L8.35355 15.6464C8.15829 15.8417 7.84171 15.8417 7.64645 15.6464L0.353553 8.35355C0.158291 8.15829 0.158291 7.84171 0.353553 7.64645L7.64645 0.353553C7.84171 0.158291 8.15829 0.158291 8.35355 0.353553L12.6464 4.64645C12.8417 4.84171 12.8417 5.15829 12.6464 5.35355L8.35355 9.64645C8.15829 9.84171 7.84171 9.84171 7.64645 9.64645L6.35355 8.35355C6.15829 8.15829 6.15829 7.84171 6.35355 7.64645L8.64645 5.35355C8.84171 5.15829 8.84171 4.84171 8.64645 4.64645L8.35355 4.35355C8.15829 4.15829 7.84171 4.15829 7.64645 4.35355L4.35355 7.64645C4.15829 7.84171 4.15829 8.15829 4.35355 8.35355L7.64645 11.6464C7.84171 11.8417 8.15829 11.8417 8.35355 11.6464L13.6464 6.35355C13.8417 6.15829 14.1583 6.15829 14.3536 6.35355L15.6464 7.64645C15.8417 7.84171 15.8417 8.15829 15.6464 8.35355Z" fill="url(#paint0_radial_345_10)"/>
<path d="M15.6464 8.35355L8.35355 15.6464C8.15829 15.8417 7.84171 15.8417 7.64645 15.6464L0.353553 8.35355C0.158291 8.15829 0.158291 7.84171 0.353553 7.64645L7.64645 0.353553C7.84171 0.158291 8.15829 0.158291 8.35355 0.353553L12.6464 4.64645C12.8417 4.84171 12.8417 5.15829 12.6464 5.35355L8.35355 9.64645C8.15829 9.84171 7.84171 9.84171 7.64645 9.64645L6.35355 8.35355C6.15829 8.15829 6.15829 7.84171 6.35355 7.64645L8.64645 5.35355C8.84171 5.15829 8.84171 4.84171 8.64645 4.64645L8.35355 4.35355C8.15829 4.15829 7.84171 4.15829 7.64645 4.35355L4.35355 7.64645C4.15829 7.84171 4.15829 8.15829 4.35355 8.35355L7.64645 11.6464C7.84171 11.8417 8.15829 11.8417 8.35355 11.6464L13.6464 6.35355C13.8417 6.15829 14.1583 6.15829 14.3536 6.35355L15.6464 7.64645C15.8417 7.84171 15.8417 8.15829 15.6464 8.35355Z" fill="url(#paint1_linear_345_10)"/>
<path d="M2.35355 6.35355L4 8L7.64645 11.6464C7.84171 11.8417 8.15829 11.8417 8.35355 11.6464L13.6464 6.35355C13.8417 6.15829 14.1583 6.15829 14.3536 6.35355L15.6464 7.64645C15.8417 7.84171 15.8417 8.15829 15.6464 8.35355L8.35355 15.6464C8.15829 15.8417 7.84171 15.8417 7.64645 15.6464L0.353553 8.35355C0.158291 8.15829 0.158291 7.84171 0.353553 7.64645L1.64645 6.35355C1.84171 6.15829 2.15829 6.15829 2.35355 6.35355Z" fill="url(#paint2_linear_345_10)"/>
<defs>
<radialGradient id="paint0_radial_345_10" cx="0" cy="0" r="1" gradientUnits="userSpaceOnUse" gradientTransform="translate(8 8) rotate(-90) scale(12.5)">
<stop stop-color="#FF8904"/>
<stop offset="0.639195" stop-color="#FF6800"/>
</radialGradient>
<linearGradient id="paint1_linear_345_10" x1="2" y1="8" x2="4" y2="6" gradientUnits="userSpaceOnUse">
<stop stop-color="#1C1917" stop-opacity="0.5"/>
<stop offset="1" stop-color="#1C1917" stop-opacity="0"/>
</linearGradient>
<linearGradient id="paint2_linear_345_10" x1="8" y1="6" x2="8" y2="16" gradientUnits="userSpaceOnUse">
<stop offset="0.603545" stop-color="#F54A00"/>
<stop offset="1" stop-color="#FF6800"/>
</linearGradient>
</defs>
</svg>
