<svg width="22" height="18" viewBox="0 0 22 18" fill="none" xmlns="http://www.w3.org/2000/svg">
<path d="M19.8 15.6H17.6V5.97501L11 10.1L4.4 5.97501V15.6H2.2V2.40001H3.52L11 7.07501L18.48 2.40001H19.8M19.8 0.200012H2.2C0.979 0.200012 0 1.17901 0 2.40001V15.6C0 16.1835 0.231785 16.7431 0.644365 17.1556C1.05695 17.5682 1.61652 17.8 2.2 17.8H19.8C20.3835 17.8 20.9431 17.5682 21.3556 17.1556C21.7682 16.7431 22 16.1835 22 15.6V2.40001C22 1.81654 21.7682 1.25696 21.3556 0.844377C20.9431 0.431797 20.3835 0.200012 19.8 0.200012Z" fill="currentColor"/>
</svg>
