<svg width="25" height="24" viewBox="0 0 25 24" fill="none" xmlns="http://www.w3.org/2000/svg">
<path d="M16 7H8C7.44772 7 7 7.44772 7 8C7 8.55228 7.44772 9 8 9H16C16.5523 9 17 8.55228 17 8C17 7.44772 16.5523 7 16 7Z" fill="currentColor"/>
<path d="M16 11H8C7.44772 11 7 11.4477 7 12C7 12.5523 7.44772 13 8 13H16C16.5523 13 17 12.5523 17 12C17 11.4477 16.5523 11 16 11Z" fill="currentColor"/>
<path d="M16 15H8C7.44772 15 7 15.4477 7 16C7 16.5523 7.44772 17 8 17H16C16.5523 17 17 16.5523 17 16C17 15.4477 16.5523 15 16 15Z" fill="currentColor"/>
<path fill-rule="evenodd" clip-rule="evenodd" d="M3.38015 0C2.51217 0 1.67974 0.344804 1.06598 0.95856C0.452226 1.57232 0.107422 2.40475 0.107422 3.27273V20.7273C0.107422 21.5953 0.452226 22.4277 1.06598 23.0414C1.67974 23.6552 2.51217 24 3.38015 24H20.8347C21.7027 24 22.5351 23.6552 23.1489 23.0414C23.7626 22.4277 24.1074 21.5953 24.1074 20.7273V3.27273C24.1074 2.40475 23.7626 1.57232 23.1489 0.95856C22.5351 0.344804 21.7027 0 20.8347 0H3.38015ZM20.8347 2.18182H3.38015C3.09082 2.18182 2.81335 2.29675 2.60876 2.50134C2.40417 2.70592 2.28924 2.9834 2.28924 3.27273V20.7273C2.28924 21.0166 2.40417 21.2941 2.60876 21.4987C2.81335 21.7032 3.09082 21.8182 3.38015 21.8182H20.8347C21.124 21.8182 21.4015 21.7032 21.6061 21.4987C21.8107 21.2941 21.9256 21.0166 21.9256 20.7273V3.27273C21.9256 2.9834 21.8107 2.70592 21.6061 2.50134C21.4015 2.29675 21.124 2.18182 20.8347 2.18182Z" fill="currentColor"/>
</svg>
