<svg xmlns="http://www.w3.org/2000/svg" width="999" height="999" style="max-width:100%;height:auto" viewBox="0 0 999 999"><path fill="#0c0a09" d="M0 0h999v999H0z"/><g fill="#d6d3d1"><path d="M297.81 81.81H270V67.905C270 60.025 276.026 54 283.905 54h13.905z"/><path d="M297 54h27.81v27.81H297z"/><path d="M351.81 81.81H324V54h13.905c7.88 0 13.905 6.026 13.905 13.905zm81 0H405V67.905C405 60.025 411.026 54 418.905 54c7.88 0 13.905 6.026 13.905 13.905zm81 0H486V67.905C486 60.025 492.026 54 499.905 54c7.88 0 13.905 6.026 13.905 13.905zm54 0H540V67.905C540 60.025 546.026 54 553.905 54h13.905z"/><path d="M567 54h27.81v27.81H567z"/><path d="M607.905 81.81H594V54h13.905c7.88 0 13.905 6.026 13.905 13.905 0 7.88-6.025 13.905-13.905 13.905m94.905 0h-13.905c-7.88 0-13.905-6.025-13.905-13.905S681.026 54 688.905 54h13.905z"/><path d="M729.81 81.81H702V54h13.905c7.88 0 13.905 6.026 13.905 13.905zM270 81h27.81v27.81H270zm67.905 27.81c-7.88 0-13.905-6.025-13.905-13.905V81h27.81v13.905c0 7.88-6.026 13.905-13.905 13.905m67.905 0H378V94.905C378 87.025 384.026 81 391.905 81h13.905z"/><path d="M405 81h27.81v27.81H405z"/><path d="M459.81 108.81H432V81h13.905c7.88 0 13.905 6.026 13.905 13.905zM486 81h27.81v27.81H486z"/><path d="M513 81h27.81v27.81H513z"/><path d="M540 81h27.81v27.81H540z"/><path d="M580.905 108.81H567V81h27.81v13.905c0 7.88-6.025 13.905-13.905 13.905m67.905 0H621V94.905C621 87.025 627.026 81 634.905 81h13.905z"/><path d="M675.81 108.81H648V81h13.905c7.88 0 13.905 6.026 13.905 13.905zM702 81h27.81v27.81H702zm-418.095 54.81c-7.88 0-13.905-6.025-13.905-13.905V108h27.81v13.905c0 7.88-6.026 13.905-13.905 13.905M378 108h27.81v27.81H378zm54 0h27.81v27.81H432zm67.905 27.81c-7.88 0-13.905-6.025-13.905-13.905V108h27.81v13.905c0 7.88-6.025 13.905-13.905 13.905"/><path d="M648.81 135.81h-13.905c-7.88 0-13.905-6.025-13.905-13.905V108h27.81z"/><path d="M648 108h27.81v27.81H648z"/><path d="M675 108h27.81v27.81H675z"/><path d="M702 108h27.81v27.81H702zm-391.095 27a13.905 13.905 0 1 0 0 27.81 13.905 13.905 0 1 0 0-27.81M378 135h27.81v27.81H378zm81.81 27.81h-13.905c-7.88 0-13.905-6.025-13.905-13.905V135h27.81z"/><path d="M472.905 162.81H459V135h13.905c7.88 0 13.905 6.026 13.905 13.905 0 7.88-6.026 13.905-13.905 13.905m121.905 0h-13.905c-7.88 0-13.905-6.025-13.905-13.905S573.026 135 580.905 135h13.905z"/><path d="M621.81 162.81H594V135h13.905c7.88 0 13.905 6.026 13.905 13.905zM648 135h27.81v27.81H648z"/><path d="M675 135h27.81v27.81H675z"/><path d="M702 135h27.81v27.81H702zm-350.19 54.81H324v-13.905c0-7.88 6.026-13.905 13.905-13.905h13.905z"/><path d="M351 162h27.81v27.81H351z"/><path d="M378 162h27.81v27.81H378z"/><path d="M418.905 189.81H405V162h13.905c7.88 0 13.905 6.026 13.905 13.905 0 7.88-6.026 13.905-13.905 13.905m94.905 0h-13.905c-7.88 0-13.905-6.025-13.905-13.905S492.026 162 499.905 162h13.905z"/><path d="M526.905 189.81H513V162h13.905c7.88 0 13.905 6.026 13.905 13.905 0 7.88-6.025 13.905-13.905 13.905m94.905 0h-13.905c-7.88 0-13.905-6.025-13.905-13.905V162h27.81z"/><path d="M621 162h27.81v27.81H621z"/><path d="M648 162h27.81v27.81H648zm67.905 27.81c-7.88 0-13.905-6.025-13.905-13.905V162h27.81v13.905c0 7.88-6.025 13.905-13.905 13.905m-418.095 27H270v-13.905c0-7.88 6.026-13.905 13.905-13.905 7.88 0 13.905 6.026 13.905 13.905zM324 189h27.81v27.81H324z"/><path d="M364.905 216.81H351V189h27.81v13.905c0 7.88-6.026 13.905-13.905 13.905m202.905 0H540v-13.905c0-7.88 6.026-13.905 13.905-13.905 7.88 0 13.905 6.026 13.905 13.905zm81 0h-13.905c-7.88 0-13.905-6.025-13.905-13.905V189h27.81z"/><path d="M648 189h27.81v27.81H648zm-378 27h27.81v27.81H270zm67.905 27.81c-7.88 0-13.905-6.025-13.905-13.905V216h27.81v13.905c0 7.88-6.026 13.905-13.905 13.905m54-27.81a13.905 13.905 0 1 0 0 27.81 13.905 13.905 0 1 0 0-27.81m54 0a13.905 13.905 0 1 0 0 27.81 13.905 13.905 0 1 0 0-27.81m54 0a13.905 13.905 0 1 0 0 27.81 13.905 13.905 0 1 0 0-27.81"/><path d="M540 216h27.81v27.81H540zm81.81 27.81H594v-13.905c0-7.88 6.026-13.905 13.905-13.905 7.88 0 13.905 6.026 13.905 13.905zm40.095 0c-7.88 0-13.905-6.025-13.905-13.905V216h27.81v13.905c0 7.88-6.025 13.905-13.905 13.905m54-27.81a13.905 13.905 0 1 0 0 27.81 13.905 13.905 0 1 0 0-27.81M270 243h27.81v27.81H270zm108.81 27.81H351v-13.905c0-7.88 6.026-13.905 13.905-13.905 7.88 0 13.905 6.025 13.905 13.905zm54 0H405v-13.905c0-7.88 6.026-13.905 13.905-13.905 7.88 0 13.905 6.025 13.905 13.905zM472.905 243a13.905 13.905 0 1 0 0 27.81 13.905 13.905 0 1 0 0-27.81"/><path d="M567.81 270.81h-13.905c-7.88 0-13.905-6.026-13.905-13.905V243h27.81z"/><path d="M567 243h27.81v27.81H567z"/><path d="M594 243h27.81v27.81H594z"/><path d="M634.905 270.81H621V243h13.905c7.88 0 13.905 6.026 13.905 13.905 0 7.88-6.025 13.905-13.905 13.905m67.905 0H675v-13.905c0-7.88 6.026-13.905 13.905-13.905 7.88 0 13.905 6.025 13.905 13.905zm-567 27h-13.905c-7.88 0-13.905-6.026-13.905-13.905 0-7.88 6.026-13.905 13.905-13.905h13.905z"/><path d="M135 270h27.81v27.81H135z"/><path d="M189.81 297.81H162V270h13.905c7.88 0 13.905 6.026 13.905 13.905zM229.905 270a13.905 13.905 0 1 0 0 27.81 13.905 13.905 0 1 0 0-27.81M270 270h27.81v27.81H270z"/><path d="M324.81 297.81H297V270h13.905c7.88 0 13.905 6.026 13.905 13.905zM351 270h27.81v27.81H351zm54 0h27.81v27.81H405zm121.905 0a13.905 13.905 0 1 0 0 27.81 13.905 13.905 0 1 0 0-27.81m54 27.81c-7.88 0-13.905-6.026-13.905-13.905V270h27.81v13.905c0 7.88-6.025 13.905-13.905 13.905m94.905 0h-13.905c-7.88 0-13.905-6.026-13.905-13.905 0-7.88 6.026-13.905 13.905-13.905h13.905z"/><path d="M675 270h27.81v27.81H675z"/><path d="M702 270h27.81v27.81H702z"/><path d="M729 270h27.81v27.81H729z"/><path d="M756 270h27.81v27.81H756z"/><path d="M796.905 297.81H783V270h13.905c7.88 0 13.905 6.026 13.905 13.905 0 7.88-6.025 13.905-13.905 13.905m94.905 0h-13.905c-7.88 0-13.905-6.026-13.905-13.905 0-7.88 6.026-13.905 13.905-13.905h13.905z"/><path d="M891 270h27.81v27.81H891z"/><path d="M945.81 297.81H918V270h13.905c7.88 0 13.905 6.026 13.905 13.905zm-864 27H54v-13.905C54 303.025 60.026 297 67.905 297c7.88 0 13.905 6.026 13.905 13.905zM162 297h27.81v27.81H162zm108.81 27.81H243v-13.905c0-7.88 6.026-13.905 13.905-13.905h13.905z"/><path d="M270 297h27.81v27.81H270z"/><path d="M297 297h27.81v27.81H297z"/><path d="M324 297h27.81v27.81H324z"/><path d="M364.905 324.81H351V297h27.81v13.905c0 7.88-6.026 13.905-13.905 13.905M405 297h27.81v27.81H405z"/><path d="M459.81 324.81H432V297h13.905c7.88 0 13.905 6.026 13.905 13.905zM499.905 297a13.905 13.905 0 1 0 0 27.81 13.905 13.905 0 1 0 0-27.81m108 0a13.905 13.905 0 1 0 0 27.81 13.905 13.905 0 1 0 0-27.81m81 27.81c-7.88 0-13.905-6.026-13.905-13.905V297h27.81v13.905c0 7.88-6.025 13.905-13.905 13.905m67.905 0h-13.905c-7.88 0-13.905-6.026-13.905-13.905V297h27.81z"/><path d="M769.905 324.81H756V297h27.81v13.905c0 7.88-6.025 13.905-13.905 13.905m81-27.81a13.905 13.905 0 1 0 0 27.81 13.905 13.905 0 1 0 0-27.81m81 27.81c-7.88 0-13.905-6.026-13.905-13.905V297h27.81v13.905c0 7.88-6.025 13.905-13.905 13.905m-864 27c-7.88 0-13.905-6.026-13.905-13.905V324h27.81v13.905c0 7.88-6.025 13.905-13.905 13.905m94.905 0H135v-13.905c0-7.88 6.026-13.905 13.905-13.905h13.905z"/><path d="M175.905 351.81H162V324h27.81v13.905c0 7.88-6.025 13.905-13.905 13.905m67.905 0h-13.905c-7.88 0-13.905-6.026-13.905-13.905 0-7.88 6.026-13.905 13.905-13.905h13.905z"/><path d="M243 324h27.81v27.81H243z"/><path d="M270 324h27.81v27.81H270z"/><path d="M297 324h27.81v27.81H297z"/><path d="M324 324h27.81v27.81H324zm108.81 27.81h-13.905c-7.88 0-13.905-6.026-13.905-13.905V324h27.81z"/><path d="M432 324h27.81v27.81H432z"/><path d="M472.905 351.81H459V324h13.905c7.88 0 13.905 6.026 13.905 13.905 0 7.88-6.026 13.905-13.905 13.905m108-27.81a13.905 13.905 0 1 0 0 27.81 13.905 13.905 0 1 0 0-27.81m81 0a13.905 13.905 0 1 0 0 27.81 13.905 13.905 0 1 0 0-27.81m54 0a13.905 13.905 0 1 0 0 27.81 13.905 13.905 0 1 0 0-27.81m81 0a13.905 13.905 0 1 0 0 27.81 13.905 13.905 0 1 0 0-27.81m121.905 27.81H891v-13.905c0-7.88 6.026-13.905 13.905-13.905 7.88 0 13.905 6.026 13.905 13.905zm-810 27H94.905c-7.88 0-13.905-6.026-13.905-13.905C81 357.025 87.026 351 94.905 351h13.905z"/><path d="M108 351h27.81v27.81H108z"/><path d="M148.905 378.81H135V351h27.81v13.905c0 7.88-6.025 13.905-13.905 13.905m67.905 0H189v-13.905c0-7.88 6.026-13.905 13.905-13.905 7.88 0 13.905 6.026 13.905 13.905zm108 0h-13.905c-7.88 0-13.905-6.026-13.905-13.905V351h27.81z"/><path d="M324 351h27.81v27.81H324zm189.81 27.81h-13.905c-7.88 0-13.905-6.026-13.905-13.905 0-7.88 6.026-13.905 13.905-13.905h13.905z"/><path d="M526.905 378.81H513V351h13.905c7.88 0 13.905 6.026 13.905 13.905 0 7.88-6.025 13.905-13.905 13.905m175.905 0H675v-13.905c0-7.88 6.026-13.905 13.905-13.905 7.88 0 13.905 6.026 13.905 13.905zm54 0H729v-13.905c0-7.88 6.026-13.905 13.905-13.905 7.88 0 13.905 6.026 13.905 13.905zm108 0H837v-13.905c0-7.88 6.026-13.905 13.905-13.905h13.905z"/><path d="M864 351h27.81v27.81H864z"/><path d="M891 351h27.81v27.81H891zM67.905 378a13.905 13.905 0 1 0 0 27.81 13.905 13.905 0 1 0 0-27.81m121.905 27.81h-13.905c-7.88 0-13.905-6.026-13.905-13.905 0-7.88 6.026-13.905 13.905-13.905h13.905z"/><path d="M189 378h27.81v27.81H189z"/><path d="M229.905 405.81H216V378h13.905c7.88 0 13.905 6.026 13.905 13.905 0 7.88-6.025 13.905-13.905 13.905m67.905 0H270v-13.905c0-7.88 6.026-13.905 13.905-13.905 7.88 0 13.905 6.026 13.905 13.905zM324 378h27.81v27.81H324zm324.81 27.81h-13.905c-7.88 0-13.905-6.026-13.905-13.905 0-7.88 6.026-13.905 13.905-13.905h13.905z"/><path d="M648 378h27.81v27.81H648z"/><path d="M675 378h27.81v27.81H675z"/><path d="M702 378h27.81v27.81H702z"/><path d="M729 378h27.81v27.81H729zm81.81 27.81h-13.905c-7.88 0-13.905-6.026-13.905-13.905 0-7.88 6.026-13.905 13.905-13.905h13.905z"/><path d="M810 378h27.81v27.81H810z"/><path d="M837 378h27.81v27.81H837zm67.905 27.81c-7.88 0-13.905-6.026-13.905-13.905V378h27.81v13.905c0 7.88-6.025 13.905-13.905 13.905m-796.095 27H94.905c-7.88 0-13.905-6.026-13.905-13.905C81 411.025 87.026 405 94.905 405h13.905z"/><path d="M135.81 432.81H108V405h13.905c7.88 0 13.905 6.026 13.905 13.905zm148.095 0c-7.88 0-13.905-6.026-13.905-13.905V405h27.81v13.905c0 7.88-6.026 13.905-13.905 13.905m54 0c-7.88 0-13.905-6.026-13.905-13.905V405h27.81v13.905c0 7.88-6.026 13.905-13.905 13.905m364.905 0h-13.905c-7.88 0-13.905-6.026-13.905-13.905V405h27.81z"/><path d="M702 405h27.81v27.81H702z"/><path d="M729 405h27.81v27.81H729z"/><path d="M783.81 432.81H756V405h13.905c7.88 0 13.905 6.026 13.905 13.905zm81 0h-13.905c-7.88 0-13.905-6.026-13.905-13.905V405h27.81z"/><path d="M877.905 432.81H864V405h13.905c7.88 0 13.905 6.026 13.905 13.905 0 7.88-6.025 13.905-13.905 13.905m54-27.81a13.905 13.905 0 1 0 0 27.81 13.905 13.905 0 1 0 0-27.81M81.81 459.81H54v-13.905C54 438.025 60.026 432 67.905 432c7.88 0 13.905 6.026 13.905 13.905zm40.095 0c-7.88 0-13.905-6.026-13.905-13.905V432h27.81v13.905c0 7.88-6.025 13.905-13.905 13.905m121.905 0h-13.905c-7.88 0-13.905-6.026-13.905-13.905 0-7.88 6.026-13.905 13.905-13.905h13.905z"/><path d="M270.81 459.81H243V432h13.905c7.88 0 13.905 6.026 13.905 13.905zm108 0H351v-13.905c0-7.88 6.026-13.905 13.905-13.905 7.88 0 13.905 6.026 13.905 13.905zm297 0H648v-13.905c0-7.88 6.026-13.905 13.905-13.905 7.88 0 13.905 6.026 13.905 13.905zm40.095 0c-7.88 0-13.905-6.026-13.905-13.905V432h27.81v13.905c0 7.88-6.025 13.905-13.905 13.905m67.905 0h-13.905c-7.88 0-13.905-6.026-13.905-13.905V432h27.81z"/><path d="M796.905 459.81H783V432h13.905c7.88 0 13.905 6.026 13.905 13.905 0 7.88-6.025 13.905-13.905 13.905m108-27.81a13.905 13.905 0 1 0 0 27.81 13.905 13.905 0 1 0 0-27.81M54 459h27.81v27.81H54zm121.905 0a13.905 13.905 0 1 0 0 27.81 13.905 13.905 0 1 0 0-27.81m94.905 27.81h-13.905c-7.88 0-13.905-6.026-13.905-13.905V459h27.81z"/><path d="M283.905 486.81H270V459h13.905c7.88 0 13.905 6.026 13.905 13.905 0 7.88-6.026 13.905-13.905 13.905m67.905 0h-13.905c-7.88 0-13.905-6.026-13.905-13.905 0-7.88 6.026-13.905 13.905-13.905h13.905z"/><path d="M351 459h27.81v27.81H351zm297.81 27.81h-13.905c-7.88 0-13.905-6.026-13.905-13.905 0-7.88 6.026-13.905 13.905-13.905h13.905z"/><path d="M661.905 486.81H648V459h27.81v13.905c0 7.88-6.025 13.905-13.905 13.905m216-27.81a13.905 13.905 0 1 0 0 27.81 13.905 13.905 0 1 0 0-27.81M81.81 513.81H67.905c-7.88 0-13.905-6.025-13.905-13.905V486h27.81z"/><path d="M81 486h27.81v27.81H81z"/><path d="M135.81 513.81H108V486h13.905c7.88 0 13.905 6.026 13.905 13.905zm81 0h-13.905c-7.88 0-13.905-6.025-13.905-13.905S195.026 486 202.905 486h13.905z"/><path d="M229.905 513.81H216V486h13.905c7.88 0 13.905 6.026 13.905 13.905 0 7.88-6.025 13.905-13.905 13.905M351 486h27.81v27.81H351zm391.905 0a13.905 13.905 0 1 0 0 27.81 13.905 13.905 0 1 0 0-27.81m67.905 27.81h-13.905c-7.88 0-13.905-6.025-13.905-13.905S789.026 486 796.905 486h13.905z"/><path d="M823.905 513.81H810V486h13.905c7.88 0 13.905 6.026 13.905 13.905 0 7.88-6.025 13.905-13.905 13.905m-715.095 27H94.905c-7.88 0-13.905-6.025-13.905-13.905V513h27.81z"/><path d="M108 513h27.81v27.81H108zm81.81 27.81H162v-13.905c0-7.88 6.026-13.905 13.905-13.905 7.88 0 13.905 6.026 13.905 13.905zm108 0H270v-13.905c0-7.88 6.026-13.905 13.905-13.905h13.905z"/><path d="M297 513h27.81v27.81H297z"/><path d="M324 513h27.81v27.81H324z"/><path d="M364.905 540.81H351V513h27.81v13.905c0 7.88-6.026 13.905-13.905 13.905m270-27.81a13.905 13.905 0 1 0 0 27.81 13.905 13.905 0 1 0 0-27.81m67.905 27.81h-13.905c-7.88 0-13.905-6.025-13.905-13.905S681.026 513 688.905 513h13.905z"/><path d="M715.905 540.81H702V513h13.905c7.88 0 13.905 6.026 13.905 13.905 0 7.88-6.025 13.905-13.905 13.905m54-27.81a13.905 13.905 0 1 0 0 27.81 13.905 13.905 0 1 0 0-27.81m162 0a13.905 13.905 0 1 0 0 27.81 13.905 13.905 0 1 0 0-27.81m-810 54.81c-7.88 0-13.905-6.025-13.905-13.905V540h27.81v13.905c0 7.88-6.025 13.905-13.905 13.905m54 0c-7.88 0-13.905-6.025-13.905-13.905V540h27.81v13.905c0 7.88-6.025 13.905-13.905 13.905m67.905 0h-13.905c-7.88 0-13.905-6.025-13.905-13.905S222.026 540 229.905 540h13.905z"/><path d="M243 540h27.81v27.81H243z"/><path d="M283.905 567.81H270V540h27.81v13.905c0 7.88-6.026 13.905-13.905 13.905m54 0c-7.88 0-13.905-6.025-13.905-13.905V540h27.81v13.905c0 7.88-6.026 13.905-13.905 13.905m324-27.81a13.905 13.905 0 1 0 0 27.81 13.905 13.905 0 1 0 0-27.81m94.905 27.81H729v-13.905c0-7.88 6.026-13.905 13.905-13.905 7.88 0 13.905 6.026 13.905 13.905zM823.905 540a13.905 13.905 0 1 0 0 27.81 13.905 13.905 0 1 0 0-27.81m67.905 27.81H864v-13.905c0-7.88 6.026-13.905 13.905-13.905h13.905z"/><path d="M904.905 567.81H891V540h13.905c7.88 0 13.905 6.026 13.905 13.905 0 7.88-6.025 13.905-13.905 13.905m-823.095 27H54v-13.905C54 573.025 60.026 567 67.905 567c7.88 0 13.905 6.026 13.905 13.905zM148.905 567a13.905 13.905 0 1 0 0 27.81 13.905 13.905 0 1 0 0-27.81m486 0a13.905 13.905 0 1 0 0 27.81 13.905 13.905 0 1 0 0-27.81m67.905 27.81h-13.905c-7.88 0-13.905-6.025-13.905-13.905S681.026 567 688.905 567h13.905z"/><path d="M702 567h27.81v27.81H702z"/><path d="M729 567h27.81v27.81H729zm81.81 27.81H783v-13.905c0-7.88 6.026-13.905 13.905-13.905 7.88 0 13.905 6.026 13.905 13.905zm54 0H837v-13.905c0-7.88 6.026-13.905 13.905-13.905h13.905z"/><path d="M877.905 594.81H864V567h27.81v13.905c0 7.88-6.025 13.905-13.905 13.905m54-27.81a13.905 13.905 0 1 0 0 27.81 13.905 13.905 0 1 0 0-27.81M54 594h27.81v27.81H54zm81.81 27.81H108v-13.905c0-7.88 6.026-13.905 13.905-13.905 7.88 0 13.905 6.026 13.905 13.905zm81 0h-13.905c-7.88 0-13.905-6.025-13.905-13.905S195.026 594 202.905 594h13.905z"/><path d="M216 594h27.81v27.81H216z"/><path d="M243 594h27.81v27.81H243z"/><path d="M297.81 621.81H270V594h13.905c7.88 0 13.905 6.026 13.905 13.905zM661.905 594a13.905 13.905 0 1 0 0 27.81 13.905 13.905 0 1 0 0-27.81M702 594h27.81v27.81H702z"/><path d="M729 594h27.81v27.81H729zm81.81 27.81h-13.905c-7.88 0-13.905-6.025-13.905-13.905V594h27.81z"/><path d="M810 594h27.81v27.81H810z"/><path d="M837 594h27.81v27.81H837zM54 621h27.81v27.81H54z"/><path d="M81 621h27.81v27.81H81z"/><path d="M108 621h27.81v27.81H108zm81.81 27.81H162v-13.905c0-7.88 6.026-13.905 13.905-13.905 7.88 0 13.905 6.026 13.905 13.905zM270 621h27.81v27.81H270z"/><path d="M297 621h27.81v27.81H297z"/><path d="M337.905 648.81H324V621h13.905c7.88 0 13.905 6.026 13.905 13.905 0 7.88-6.026 13.905-13.905 13.905m121.905 0H432v-13.905c0-7.88 6.026-13.905 13.905-13.905 7.88 0 13.905 6.026 13.905 13.905zM499.905 621a13.905 13.905 0 1 0 0 27.81 13.905 13.905 0 1 0 0-27.81m54 0a13.905 13.905 0 1 0 0 27.81 13.905 13.905 0 1 0 0-27.81m54 0a13.905 13.905 0 1 0 0 27.81 13.905 13.905 0 1 0 0-27.81m94.905 27.81h-13.905c-7.88 0-13.905-6.025-13.905-13.905S681.026 621 688.905 621h13.905z"/><path d="M702 621h27.81v27.81H702z"/><path d="M729 621h27.81v27.81H729z"/><path d="M769.905 648.81H756V621h13.905c7.88 0 13.905 6.026 13.905 13.905 0 7.88-6.025 13.905-13.905 13.905m94.905 0h-13.905c-7.88 0-13.905-6.025-13.905-13.905V621h27.81z"/><path d="M891.81 648.81H864V621h13.905c7.88 0 13.905 6.026 13.905 13.905zM931.905 621a13.905 13.905 0 1 0 0 27.81 13.905 13.905 0 1 0 0-27.81M54 648h27.81v27.81H54zm67.905 27.81c-7.88 0-13.905-6.025-13.905-13.905V648h27.81v13.905c0 7.88-6.025 13.905-13.905 13.905m67.905 0h-13.905c-7.88 0-13.905-6.025-13.905-13.905V648h27.81z"/><path d="M189 648h27.81v27.81H189z"/><path d="M216 648h27.81v27.81H216z"/><path d="M243 648h27.81v27.81H243z"/><path d="M283.905 675.81H270V648h27.81v13.905c0 7.88-6.026 13.905-13.905 13.905M432 648h27.81v27.81H432zm243.81 27.81H648v-13.905c0-7.88 6.026-13.905 13.905-13.905 7.88 0 13.905 6.026 13.905 13.905zm40.095 0c-7.88 0-13.905-6.025-13.905-13.905V648h27.81v13.905c0 7.88-6.025 13.905-13.905 13.905m108-27.81a13.905 13.905 0 1 0 0 27.81 13.905 13.905 0 1 0 0-27.81M864 648h27.81v27.81H864z"/><path d="M918.81 675.81H891V648h13.905c7.88 0 13.905 6.026 13.905 13.905zM54 675h27.81v27.81H54zm108.81 27.81H135v-13.905c0-7.88 6.026-13.905 13.905-13.905 7.88 0 13.905 6.026 13.905 13.905zM189 675h27.81v27.81H189zm67.905 27.81c-7.88 0-13.905-6.025-13.905-13.905V675h27.81v13.905c0 7.88-6.026 13.905-13.905 13.905m67.905 0h-13.905c-7.88 0-13.905-6.025-13.905-13.905S303.026 675 310.905 675h13.905z"/><path d="M324 675h27.81v27.81H324z"/><path d="M351 675h27.81v27.81H351z"/><path d="M391.905 702.81H378V675h13.905c7.88 0 13.905 6.026 13.905 13.905 0 7.88-6.026 13.905-13.905 13.905M432 675h27.81v27.81H432z"/><path d="M472.905 702.81H459V675h13.905c7.88 0 13.905 6.026 13.905 13.905 0 7.88-6.026 13.905-13.905 13.905m67.905 0h-13.905c-7.88 0-13.905-6.025-13.905-13.905S519.026 675 526.905 675h13.905z"/><path d="M540 675h27.81v27.81H540z"/><path d="M580.905 702.81H567V675h13.905c7.88 0 13.905 6.026 13.905 13.905 0 7.88-6.025 13.905-13.905 13.905m67.905 0h-13.905c-7.88 0-13.905-6.025-13.905-13.905S627.026 675 634.905 675h13.905z"/><path d="M648 675h27.81v27.81H648z"/><path d="M688.905 702.81H675V675h13.905c7.88 0 13.905 6.026 13.905 13.905 0 7.88-6.025 13.905-13.905 13.905m175.905 0H837v-13.905c0-7.88 6.026-13.905 13.905-13.905h13.905z"/><path d="M864 675h27.81v27.81H864z"/><path d="M891 675h27.81v27.81H891z"/><path d="M945.81 702.81H918V675h13.905c7.88 0 13.905 6.026 13.905 13.905zm-877.905 27c-7.88 0-13.905-6.025-13.905-13.905V702h27.81v13.905c0 7.88-6.025 13.905-13.905 13.905m81 0c-7.88 0-13.905-6.025-13.905-13.905V702h27.81v13.905c0 7.88-6.025 13.905-13.905 13.905m67.905 0h-13.905c-7.88 0-13.905-6.025-13.905-13.905V702h27.81z"/><path d="M229.905 729.81H216V702h13.905c7.88 0 13.905 6.026 13.905 13.905 0 7.88-6.025 13.905-13.905 13.905m216 0c-7.88 0-13.905-6.025-13.905-13.905V702h27.81v13.905c0 7.88-6.026 13.905-13.905 13.905M540 702h27.81v27.81H540zm108 0h27.81v27.81H648zm81.81 27.81H702v-13.905c0-7.88 6.026-13.905 13.905-13.905h13.905z"/><path d="M729 702h27.81v27.81H729z"/><path d="M756 702h27.81v27.81H756z"/><path d="M783 702h27.81v27.81H783z"/><path d="M810 702h27.81v27.81H810z"/><path d="M850.905 729.81H837V702h27.81v13.905c0 7.88-6.025 13.905-13.905 13.905m67.905 0h-13.905c-7.88 0-13.905-6.025-13.905-13.905V702h27.81z"/><path d="M918 702h27.81v27.81H918zm-620.19 54.81h-13.905c-7.88 0-13.905-6.025-13.905-13.905S276.026 729 283.905 729h13.905z"/><path d="M297 729h27.81v27.81H297z"/><path d="M337.905 756.81H324V729h13.905c7.88 0 13.905 6.026 13.905 13.905 0 7.88-6.026 13.905-13.905 13.905m81-27.81a13.905 13.905 0 1 0 0 27.81 13.905 13.905 0 1 0 0-27.81m67.905 27.81h-13.905c-7.88 0-13.905-6.025-13.905-13.905S465.026 729 472.905 729h13.905z"/><path d="M499.905 756.81H486V729h13.905c7.88 0 13.905 6.026 13.905 13.905 0 7.88-6.025 13.905-13.905 13.905m67.905 0h-13.905c-7.88 0-13.905-6.025-13.905-13.905V729h27.81z"/><path d="M594.81 756.81H567V729h13.905c7.88 0 13.905 6.026 13.905 13.905zm54 0H621v-13.905c0-7.88 6.026-13.905 13.905-13.905h13.905z"/><path d="M661.905 756.81H648V729h27.81v13.905c0 7.88-6.025 13.905-13.905 13.905M702 729h27.81v27.81H702zm108 0h27.81v27.81H810zm67.905 0a13.905 13.905 0 1 0 0 27.81 13.905 13.905 0 1 0 0-27.81m54 27.81c-7.88 0-13.905-6.025-13.905-13.905V729h27.81v13.905c0 7.88-6.025 13.905-13.905 13.905m-567-.81a13.905 13.905 0 1 0 0 27.81 13.905 13.905 0 1 0 0-27.81m94.905 27.81H432v-13.905c0-7.88 6.026-13.905 13.905-13.905 7.88 0 13.905 6.026 13.905 13.905zm81 0H513v-13.905c0-7.88 6.026-13.905 13.905-13.905 7.88 0 13.905 6.026 13.905 13.905zM567 756h27.81v27.81H567z"/><path d="M594 756h27.81v27.81H594z"/><path d="M621 756h27.81v27.81H621zm81.81 27.81H675v-13.905c0-7.88 6.026-13.905 13.905-13.905h13.905z"/><path d="M702 756h27.81v27.81H702zm67.905 0a13.905 13.905 0 1 0 0 27.81 13.905 13.905 0 1 0 0-27.81M810 756h27.81v27.81H810z"/><path d="M864.81 783.81H837V756h13.905c7.88 0 13.905 6.026 13.905 13.905zm54 0H891v-13.905c0-7.88 6.026-13.905 13.905-13.905 7.88 0 13.905 6.026 13.905 13.905zm-486 27h-13.905c-7.88 0-13.905-6.025-13.905-13.905S411.026 783 418.905 783h13.905z"/><path d="M432 783h27.81v27.81H432zm81 0h27.81v27.81H513zm67.905 27.81c-7.88 0-13.905-6.025-13.905-13.905V783h27.81v13.905c0 7.88-6.025 13.905-13.905 13.905M621 783h27.81v27.81H621z"/><path d="M648 783h27.81v27.81H648z"/><path d="M675 783h27.81v27.81H675z"/><path d="M702 783h27.81v27.81H702zm108 0h27.81v27.81H810z"/><path d="M837 783h27.81v27.81H837z"/><path d="M864 783h27.81v27.81H864z"/><path d="M891 783h27.81v27.81H891z"/><path d="M945.81 810.81H918V783h13.905c7.88 0 13.905 6.026 13.905 13.905zm-648 27H270v-13.905c0-7.88 6.026-13.905 13.905-13.905 7.88 0 13.905 6.026 13.905 13.905zM337.905 810a13.905 13.905 0 1 0 0 27.81 13.905 13.905 0 1 0 0-27.81m67.905 27.81H378v-13.905c0-7.88 6.026-13.905 13.905-13.905 7.88 0 13.905 6.026 13.905 13.905zm54 0h-13.905c-7.88 0-13.905-6.025-13.905-13.905V810h27.81z"/><path d="M459 810h27.81v27.81H459z"/><path d="M486 810h27.81v27.81H486z"/><path d="M513 810h27.81v27.81H513z"/><path d="M567.81 837.81H540V810h13.905c7.88 0 13.905 6.026 13.905 13.905zM621 810h27.81v27.81H621zm108.81 27.81h-13.905c-7.88 0-13.905-6.025-13.905-13.905V810h27.81z"/><path d="M729 810h27.81v27.81H729z"/><path d="M756 810h27.81v27.81H756z"/><path d="M783 810h27.81v27.81H783z"/><path d="M810 810h27.81v27.81H810zm108.81 27.81h-13.905c-7.88 0-13.905-6.025-13.905-13.905V810h27.81z"/><path d="M918 810h27.81v27.81H918zm-648 27h27.81v27.81H270zm121.905 27.81c-7.88 0-13.905-6.025-13.905-13.905V837h27.81v13.905c0 7.88-6.026 13.905-13.905 13.905M459 837h27.81v27.81H459z"/><path d="M486 837h27.81v27.81H486z"/><path d="M513 837h27.81v27.81H513z"/><path d="M540 837h27.81v27.81H540z"/><path d="M567 837h27.81v27.81H567z"/><path d="M594 837h27.81v27.81H594z"/><path d="M621 837h27.81v27.81H621z"/><path d="M648 837h27.81v27.81H648z"/><path d="M702.81 864.81H675V837h13.905c7.88 0 13.905 6.026 13.905 13.905zM729 837h27.81v27.81H729zm108.81 27.81h-13.905c-7.88 0-13.905-6.025-13.905-13.905V837h27.81z"/><path d="M850.905 864.81H837V837h13.905c7.88 0 13.905 6.026 13.905 13.905 0 7.88-6.025 13.905-13.905 13.905m81 0c-7.88 0-13.905-6.025-13.905-13.905V837h27.81v13.905c0 7.88-6.025 13.905-13.905 13.905m-634.095 27h-13.905c-7.88 0-13.905-6.025-13.905-13.905V864h27.81z"/><path d="M297 864h27.81v27.81H297z"/><path d="M337.905 891.81H324V864h13.905c7.88 0 13.905 6.026 13.905 13.905 0 7.88-6.026 13.905-13.905 13.905m94.905 0h-13.905c-7.88 0-13.905-6.025-13.905-13.905S411.026 864 418.905 864h13.905z"/><path d="M432 864h27.81v27.81H432z"/><path d="M472.905 891.81H459V864h27.81v13.905c0 7.88-6.026 13.905-13.905 13.905M567 864h27.81v27.81H567z"/><path d="M594 864h27.81v27.81H594z"/><path d="M621 864h27.81v27.81H621z"/><path d="M648 864h27.81v27.81H648z"/><path d="M688.905 891.81H675V864h27.81v13.905c0 7.88-6.025 13.905-13.905 13.905m67.905 0h-13.905c-7.88 0-13.905-6.025-13.905-13.905V864h27.81z"/><path d="M769.905 891.81H756V864h13.905c7.88 0 13.905 6.026 13.905 13.905 0 7.88-6.025 13.905-13.905 13.905m-378-.81a13.905 13.905 0 1 0 0 27.81 13.905 13.905 0 1 0 0-27.81m121.905 27.81H486v-13.905c0-7.88 6.026-13.905 13.905-13.905h13.905z"/><path d="M540.81 918.81H513V891h13.905c7.88 0 13.905 6.026 13.905 13.905zm54 0h-13.905c-7.88 0-13.905-6.025-13.905-13.905V891h27.81z"/><path d="M594 891h27.81v27.81H594z"/><path d="M621 891h27.81v27.81H621z"/><path d="M661.905 918.81H648V891h27.81v13.905c0 7.88-6.025 13.905-13.905 13.905m135-27.81a13.905 13.905 0 1 0 0 27.81 13.905 13.905 0 1 0 0-27.81m67.905 27.81h-13.905c-7.88 0-13.905-6.025-13.905-13.905S843.026 891 850.905 891h13.905z"/><path d="M877.905 918.81H864V891h13.905c7.88 0 13.905 6.026 13.905 13.905 0 7.88-6.025 13.905-13.905 13.905m-553.095 27h-13.905c-7.88 0-13.905-6.025-13.905-13.905S303.026 918 310.905 918h13.905z"/><path d="M337.905 945.81H324V918h13.905c7.88 0 13.905 6.026 13.905 13.905 0 7.88-6.026 13.905-13.905 13.905m81-27.81a13.905 13.905 0 1 0 0 27.81 13.905 13.905 0 1 0 0-27.81m94.905 27.81h-13.905c-7.88 0-13.905-6.025-13.905-13.905V918h27.81z"/><path d="M526.905 945.81H513V918h27.81v13.905c0 7.88-6.025 13.905-13.905 13.905m108 0c-7.88 0-13.905-6.025-13.905-13.905V918h27.81v13.905c0 7.88-6.025 13.905-13.905 13.905m67.905 0h-13.905c-7.88 0-13.905-6.025-13.905-13.905S681.026 918 688.905 918h13.905z"/><path d="M715.905 945.81H702V918h13.905c7.88 0 13.905 6.026 13.905 13.905 0 7.88-6.025 13.905-13.905 13.905m54-27.81a13.905 13.905 0 1 0 0 27.81 13.905 13.905 0 1 0 0-27.81m135 0a13.905 13.905 0 1 0 0 27.81 13.905 13.905 0 1 0 0-27.81"/></g><g fill="#d6d3d1"><path d="M114.75 243h68.85c32.4 0 59.4-27 59.4-59.4v-68.85C243 81 216 54 182.25 54H113.4C81 54 54 81 54 113.4v68.85C54 216 81 243 114.75 243M216 118.8v59.4c0 20.25-17.55 37.8-37.8 37.8h-59.4C97.2 216 81 199.8 81 178.2v-59.4C81 98.55 98.55 81 118.8 81h59.4c21.6 0 37.8 16.2 37.8 37.8M816.75 243h68.85c32.4 0 59.4-27 59.4-59.4v-68.85C945 81 918 54 884.25 54H815.4C783 54 756 81 756 113.4v68.85C756 216 783 243 816.75 243M918 118.8v59.4c0 20.25-17.55 37.8-37.8 37.8h-59.4c-21.6 0-37.8-16.2-37.8-37.8v-59.4c0-20.25 17.55-37.8 37.8-37.8h59.4c21.6 0 37.8 16.2 37.8 37.8M114.75 945h68.85c32.4 0 59.4-27 59.4-59.4v-68.85C243 783 216 756 182.25 756H113.4C81 756 54 783 54 815.4v68.85C54 918 81 945 114.75 945M216 820.8v59.4c0 20.25-17.55 37.8-37.8 37.8h-59.4C97.2 918 81 901.8 81 880.2v-59.4c0-20.25 17.55-37.8 37.8-37.8h59.4c21.6 0 37.8 16.2 37.8 37.8"/><path d="M189 130.95v36.45c0 10.8-10.8 21.6-22.95 21.6h-35.1c-13.5 0-22.95-9.45-22.95-22.95v-35.1c0-12.15 10.8-22.95 22.95-22.95h36.45c12.15 0 21.6 9.45 21.6 22.95m702 0v36.45c0 10.8-10.8 21.6-22.95 21.6h-35.1c-13.5 0-22.95-9.45-22.95-22.95v-35.1c0-12.15 10.8-22.95 22.95-22.95h36.45c12.15 0 21.6 9.45 21.6 22.95m-702 702v36.45c0 10.8-10.8 21.6-22.95 21.6h-35.1c-13.5 0-22.95-9.45-22.95-22.95v-35.1c0-12.15 10.8-22.95 22.95-22.95h36.45c12.15 0 21.6 9.45 21.6 22.95"/></g><svg xmlns="http://www.w3.org/2000/svg" width="243" height="243" x="378" y="378" fill="none" viewBox="0 0 16 16"><path fill="url(#a)" d="m15.646 8.354-7.292 7.292a.5.5 0 0 1-.708 0L.354 8.354a.5.5 0 0 1 0-.708L7.646.354a.5.5 0 0 1 .708 0l4.292 4.292a.5.5 0 0 1 0 .708L8.354 9.646a.5.5 0 0 1-.708 0L6.354 8.354a.5.5 0 0 1 0-.708l2.292-2.292a.5.5 0 0 0 0-.708l-.292-.292a.5.5 0 0 0-.708 0L4.354 7.646a.5.5 0 0 0 0 .708l3.292 3.292a.5.5 0 0 0 .708 0l5.292-5.292a.5.5 0 0 1 .708 0l1.292 1.292a.5.5 0 0 1 0 .708"/><path fill="url(#b)" d="m15.646 8.354-7.292 7.292a.5.5 0 0 1-.708 0L.354 8.354a.5.5 0 0 1 0-.708L7.646.354a.5.5 0 0 1 .708 0l4.292 4.292a.5.5 0 0 1 0 .708L8.354 9.646a.5.5 0 0 1-.708 0L6.354 8.354a.5.5 0 0 1 0-.708l2.292-2.292a.5.5 0 0 0 0-.708l-.292-.292a.5.5 0 0 0-.708 0L4.354 7.646a.5.5 0 0 0 0 .708l3.292 3.292a.5.5 0 0 0 .708 0l5.292-5.292a.5.5 0 0 1 .708 0l1.292 1.292a.5.5 0 0 1 0 .708"/><path fill="url(#c)" d="M2.354 6.354 4 8l3.646 3.646a.5.5 0 0 0 .708 0l5.292-5.292a.5.5 0 0 1 .708 0l1.292 1.292a.5.5 0 0 1 0 .708l-7.292 7.292a.5.5 0 0 1-.708 0L.354 8.354a.5.5 0 0 1 0-.708l1.292-1.292a.5.5 0 0 1 .708 0"/><defs><linearGradient id="b" x1="2" x2="4" y1="8" y2="6" gradientUnits="userSpaceOnUse"><stop stop-color="#1c1917" stop-opacity=".5"/><stop offset="1" stop-color="#1c1917" stop-opacity="0"/></linearGradient><linearGradient id="c" x1="8" x2="8" y1="6" y2="16" gradientUnits="userSpaceOnUse"><stop offset=".6035" stop-color="#f54a00"/><stop offset="1" stop-color="#ff6800"/></linearGradient><radialGradient id="a" cx="0" cy="0" r="1" gradientTransform="rotate(-90 8 0)scale(12.5)" gradientUnits="userSpaceOnUse"><stop stop-color="#ff8904"/><stop offset=".6392" stop-color="#ff6800"/></radialGradient></defs></svg></svg>