<svg width="24" height="24" viewBox="0 0 24 24" fill="none" xmlns="http://www.w3.org/2000/svg">
<path d="M20 6.21393e-09C21.0203 -5.6829e-05 22.002 0.389767 22.7443 1.08971C23.4867 1.78966 23.9335 2.74681 23.9933 3.76533L24 4V20C24.0001 21.0203 23.6102 22.002 22.9103 22.7443C22.2103 23.4867 21.2532 23.9335 20.2347 23.9933L20 24H4C2.97972 24.0001 1.99798 23.6102 1.25565 22.9103C0.513324 22.2103 0.0665233 21.2532 0.00666683 20.2347L6.21393e-09 20V4C-5.6829e-05 2.97972 0.389767 1.99798 1.08971 1.25565C1.78966 0.513324 2.74681 0.0665233 3.76533 0.00666683L4 6.21393e-09H20ZM20 2.66667H4C3.67342 2.66671 3.35822 2.78661 3.11417 3.00362C2.87012 3.22063 2.71421 3.51967 2.676 3.844L2.66667 4V20C2.66671 20.3266 2.78661 20.6418 3.00362 20.8858C3.22063 21.1299 3.51967 21.2858 3.844 21.324L4 21.3333H20C20.3266 21.3333 20.6418 21.2134 20.8858 20.9964C21.1299 20.7794 21.2858 20.4803 21.324 20.156L21.3333 20V4C21.3333 3.67342 21.2134 3.35822 20.9964 3.11417C20.7794 2.87012 20.4803 2.71421 20.156 2.676L20 2.66667ZM7.33333 14.6667C7.86377 14.6667 8.37247 14.8774 8.74755 15.2525C9.12262 15.6275 9.33333 16.1362 9.33333 16.6667C9.33333 17.1971 9.12262 17.7058 8.74755 18.0809C8.37247 18.456 7.86377 18.6667 7.33333 18.6667C6.8029 18.6667 6.29419 18.456 5.91912 18.0809C5.54405 17.7058 5.33333 17.1971 5.33333 16.6667C5.33333 16.1362 5.54405 15.6275 5.91912 15.2525C6.29419 14.8774 6.8029 14.6667 7.33333 14.6667ZM6.66667 10C8.61159 10 10.4769 10.7726 11.8521 12.1479C13.2274 13.5232 14 15.3884 14 17.3333C14 17.687 13.8595 18.0261 13.6095 18.2761C13.3594 18.5262 13.0203 18.6667 12.6667 18.6667C12.313 18.6667 11.9739 18.5262 11.7239 18.2761C11.4738 18.0261 11.3333 17.687 11.3333 17.3333C11.3333 16.0957 10.8417 14.9087 9.9665 14.0335C9.09133 13.1583 7.90434 12.6667 6.66667 12.6667C6.31304 12.6667 5.97391 12.5262 5.72386 12.2761C5.47381 12.0261 5.33333 11.687 5.33333 11.3333C5.33333 10.9797 5.47381 10.6406 5.72386 10.3905C5.97391 10.1405 6.31304 10 6.66667 10ZM7.33333 5.33333C8.88521 5.33336 10.4205 5.65209 11.8442 6.26979C13.2678 6.88748 14.5494 7.79097 15.6096 8.92427C16.6698 10.0576 17.4859 11.3965 18.0074 12.8581C18.5289 14.3198 18.7447 15.8729 18.6413 17.4213C18.6341 17.5991 18.5913 17.7736 18.5155 17.9346C18.4398 18.0956 18.3326 18.2398 18.2002 18.3588C18.0679 18.4777 17.913 18.5689 17.7449 18.627C17.5767 18.6852 17.3986 18.7091 17.2211 18.6974C17.0435 18.6856 16.8701 18.6384 16.7111 18.5586C16.5521 18.4788 16.4106 18.368 16.2951 18.2327C16.1796 18.0974 16.0923 17.9403 16.0384 17.7707C15.9845 17.6012 15.9651 17.4225 15.9813 17.2453C16.0639 16.0123 15.8819 14.7759 15.4475 13.619C15.013 12.4621 14.3361 11.4115 13.4623 10.5377C12.5885 9.66386 11.5379 8.98701 10.381 8.55255C9.22411 8.11808 7.98768 7.93605 6.75467 8.01867C6.57748 8.03489 6.39883 8.01549 6.22926 7.96161C6.05969 7.90772 5.90261 7.82044 5.7673 7.7049C5.63198 7.58937 5.52116 7.44792 5.44136 7.28888C5.36155 7.12985 5.31439 6.95646 5.30264 6.77892C5.2909 6.60138 5.3148 6.42328 5.37296 6.25512C5.43111 6.08696 5.52233 5.93214 5.64125 5.79979C5.76016 5.66743 5.90436 5.56021 6.06536 5.48446C6.22635 5.4087 6.40089 5.36593 6.57867 5.35867C6.82756 5.34089 7.07911 5.33244 7.33333 5.33333Z" fill="currentColor"/>
</svg>
